<svg width="1786" height="1057" viewBox="0 0 1786 1057" fill="none" xmlns="http://www.w3.org/2000/svg">
<path d="M132.311 697.59C132.311 730.719 105.48 757.557 72.4054 757.557C39.3306 757.557 12.5 730.719 12.5 697.59C12.5 664.461 39.3306 637.623 72.4054 637.623C105.48 637.623 132.311 664.461 132.311 697.59Z" fill="#0A233F" stroke="white" stroke-width="25"/>
<path d="M1773.5 359.407C1773.5 392.536 1746.67 419.374 1713.59 419.374C1680.52 419.374 1653.69 392.536 1653.69 359.407C1653.69 326.278 1680.52 299.439 1713.59 299.439C1746.67 299.439 1773.5 326.278 1773.5 359.407Z" fill="#0A233F" stroke="white" stroke-width="25"/>
<path d="M1249.17 299.432H1279.33L1258.01 278.097L1094.92 114.878C1089.36 109.31 1084.94 102.7 1081.93 95.4236L1070.38 100.204L1081.93 95.4235C1078.92 88.1476 1077.37 80.3482 1077.37 72.4719C1077.37 64.5958 1078.92 56.7964 1081.93 49.5202C1084.94 42.2467 1089.36 35.6308 1094.93 30.0612L1086.08 21.2259L1094.93 30.0612C1106.16 18.816 1121.4 12.4999 1137.28 12.5C1153.17 12.5001 1168.4 18.8159 1179.64 30.061L1462.54 313.202C1474.24 324.916 1481.1 340.62 1481.73 357.178C1482.37 373.735 1476.74 389.922 1465.96 402.5L1274.07 626.568C1202.9 709.67 1098.88 757.549 989.532 757.549H536.827H506.668L527.984 778.884L691.078 942.117C702.314 953.363 708.628 968.616 708.629 984.523C708.629 1000.43 702.315 1015.69 691.079 1026.93L691.072 1026.94C685.51 1032.51 678.906 1036.92 671.638 1039.94C664.37 1042.95 656.582 1044.5 648.718 1044.5C640.854 1044.5 633.066 1042.95 625.797 1039.94C618.53 1036.92 611.926 1032.51 606.364 1026.94L323.462 743.781C311.759 732.068 304.902 716.361 304.267 699.804C303.632 683.246 309.265 667.059 320.037 654.481L511.928 430.413C583.098 347.31 687.097 299.432 796.448 299.432H1249.17ZM1276.04 440L1293.71 419.369H1266.55H796.448C721.975 419.369 651.352 451.883 602.89 508.471C602.89 508.472 602.89 508.472 602.89 508.472L509.957 616.981L492.288 637.612H519.451H989.532C1064 637.612 1134.65 605.097 1183.11 548.51L1276.04 440Z" fill="#0A233F" stroke="white" stroke-width="25"/>
</svg>
